<mxfile host="app.diagrams.net" agent="Mozilla/5.0 (Windows NT 10.0; Win64; x64) AppleWebKit/537.36 (KHTML, like Gecko) Chrome/136.0.0.0 Safari/537.36 Edg/136.0.0.0" version="26.3.0">
  <diagram name="Page-1" id="RGOq8lqfi6i8Ctn7MAA8">
    <mxGraphModel dx="1034" dy="632" grid="0" gridSize="10" guides="1" tooltips="1" connect="1" arrows="1" fold="1" page="1" pageScale="1" pageWidth="850" pageHeight="1100" background="light-dark(#000000,#000000)" math="0" shadow="0">
      <root>
        <mxCell id="0" />
        <mxCell id="1" parent="0" />
        <mxCell id="wvd1j4CsccvjR-k-unC9-2" value="AWS Managed Environment" style="points=[[0,0],[0.25,0],[0.5,0],[0.75,0],[1,0],[1,0.25],[1,0.5],[1,0.75],[1,1],[0.75,1],[0.5,1],[0.25,1],[0,1],[0,0.75],[0,0.5],[0,0.25]];outlineConnect=0;gradientColor=none;html=1;whiteSpace=wrap;fontSize=12;fontStyle=0;container=1;pointerEvents=0;collapsible=0;recursiveResize=0;shape=mxgraph.aws4.group;grIcon=mxgraph.aws4.group_vpc2;strokeColor=#8C4FFF;fillColor=light-dark(#000000,#660033);verticalAlign=top;align=left;spacingLeft=30;fontColor=light-dark(#AAB7B8,#FFFFFF);dashed=0;" parent="1" vertex="1">
          <mxGeometry x="130" y="280" width="392" height="380" as="geometry" />
        </mxCell>
        <mxCell id="jXmrlD668ytqve9jY46r-1" value="Lambda" style="outlineConnect=0;dashed=0;verticalLabelPosition=bottom;verticalAlign=top;align=center;html=1;shape=mxgraph.aws3.lambda_function;fillColor=#F58534;gradientColor=none;" parent="wvd1j4CsccvjR-k-unC9-2" vertex="1">
          <mxGeometry x="171" y="161" width="69" height="72" as="geometry" />
        </mxCell>
        <mxCell id="jXmrlD668ytqve9jY46r-2" value="AppS&lt;span style=&quot;background-color: transparent; color: light-dark(rgb(0, 0, 0), rgb(255, 255, 255));&quot;&gt;ync&lt;/span&gt;" style="sketch=0;points=[[0,0,0],[0.25,0,0],[0.5,0,0],[0.75,0,0],[1,0,0],[0,1,0],[0.25,1,0],[0.5,1,0],[0.75,1,0],[1,1,0],[0,0.25,0],[0,0.5,0],[0,0.75,0],[1,0.25,0],[1,0.5,0],[1,0.75,0]];outlineConnect=0;fontColor=light-dark(#000000,#FFFFFF);fillColor=#E7157B;strokeColor=#ffffff;dashed=0;verticalLabelPosition=bottom;verticalAlign=top;align=center;html=1;fontSize=12;fontStyle=0;aspect=fixed;shape=mxgraph.aws4.resourceIcon;resIcon=mxgraph.aws4.appsync;" parent="wvd1j4CsccvjR-k-unC9-2" vertex="1">
          <mxGeometry x="34" y="158" width="78" height="78" as="geometry" />
        </mxCell>
        <mxCell id="jXmrlD668ytqve9jY46r-3" value="" style="edgeStyle=orthogonalEdgeStyle;html=1;endArrow=block;elbow=vertical;startArrow=none;endFill=1;strokeColor=#FF3333;rounded=0;" parent="wvd1j4CsccvjR-k-unC9-2" source="jXmrlD668ytqve9jY46r-2" target="jXmrlD668ytqve9jY46r-1" edge="1">
          <mxGeometry width="100" relative="1" as="geometry">
            <mxPoint x="-25" y="119" as="sourcePoint" />
            <mxPoint x="131" y="168" as="targetPoint" />
          </mxGeometry>
        </mxCell>
        <mxCell id="jXmrlD668ytqve9jY46r-4" value="&lt;font style=&quot;color: light-dark(rgb(0, 0, 0), rgb(255, 255, 255));&quot;&gt;DynamoDB&lt;/font&gt;" style="sketch=0;points=[[0,0,0],[0.25,0,0],[0.5,0,0],[0.75,0,0],[1,0,0],[0,1,0],[0.25,1,0],[0.5,1,0],[0.75,1,0],[1,1,0],[0,0.25,0],[0,0.5,0],[0,0.75,0],[1,0.25,0],[1,0.5,0],[1,0.75,0]];outlineConnect=0;fontColor=#232F3E;fillColor=#C925D1;strokeColor=#ffffff;dashed=0;verticalLabelPosition=bottom;verticalAlign=top;align=center;html=1;fontSize=12;fontStyle=0;aspect=fixed;shape=mxgraph.aws4.resourceIcon;resIcon=mxgraph.aws4.dynamodb;" parent="wvd1j4CsccvjR-k-unC9-2" vertex="1">
          <mxGeometry x="294" y="161" width="78" height="78" as="geometry" />
        </mxCell>
        <mxCell id="jXmrlD668ytqve9jY46r-5" value="" style="edgeStyle=orthogonalEdgeStyle;html=1;endArrow=block;elbow=vertical;startArrow=none;endFill=1;strokeColor=#FF3333;rounded=0;" parent="wvd1j4CsccvjR-k-unC9-2" source="jXmrlD668ytqve9jY46r-1" target="jXmrlD668ytqve9jY46r-4" edge="1">
          <mxGeometry width="100" relative="1" as="geometry">
            <mxPoint x="-25" y="119" as="sourcePoint" />
            <mxPoint x="83" y="168" as="targetPoint" />
            <Array as="points">
              <mxPoint x="261" y="194" />
              <mxPoint x="261" y="194" />
            </Array>
          </mxGeometry>
        </mxCell>
        <mxCell id="wvd1j4CsccvjR-k-unC9-4" value="&lt;font&gt;API Gateway HTTP&lt;/font&gt;" style="sketch=0;points=[[0,0,0],[0.25,0,0],[0.5,0,0],[0.75,0,0],[1,0,0],[0,1,0],[0.25,1,0],[0.5,1,0],[0.75,1,0],[1,1,0],[0,0.25,0],[0,0.5,0],[0,0.75,0],[1,0.25,0],[1,0.5,0],[1,0.75,0]];outlineConnect=0;fillColor=#E7157B;strokeColor=#ffffff;dashed=0;verticalLabelPosition=bottom;verticalAlign=top;align=center;html=1;aspect=fixed;shape=mxgraph.aws4.resourceIcon;resIcon=mxgraph.aws4.api_gateway;fontColor=light-dark(#FFFFFF,#FFFFFF);" parent="1" vertex="1">
          <mxGeometry x="164" y="329" width="78" height="78" as="geometry" />
        </mxCell>
        <mxCell id="wvd1j4CsccvjR-k-unC9-5" value="API GW Websocket (TBD)" style="sketch=0;points=[[0,0,0],[0.25,0,0],[0.5,0,0],[0.75,0,0],[1,0,0],[0,1,0],[0.25,1,0],[0.5,1,0],[0.75,1,0],[1,1,0],[0,0.25,0],[0,0.5,0],[0,0.75,0],[1,0.25,0],[1,0.5,0],[1,0.75,0]];outlineConnect=0;fontColor=light-dark(#FFFFFF,#FDFDFD);fillColor=#E7157B;strokeColor=#ffffff;verticalLabelPosition=bottom;verticalAlign=top;align=center;html=1;fontSize=12;fontStyle=0;aspect=fixed;shape=mxgraph.aws4.resourceIcon;resIcon=mxgraph.aws4.api_gateway;dashed=1;dashPattern=12 12;" parent="1" vertex="1">
          <mxGeometry x="163" y="549" width="78" height="78" as="geometry" />
        </mxCell>
        <mxCell id="wvd1j4CsccvjR-k-unC9-13" value="" style="edgeStyle=orthogonalEdgeStyle;html=1;endArrow=block;elbow=vertical;startArrow=none;endFill=1;strokeColor=#FF3333;rounded=0;" parent="1" source="wvd1j4CsccvjR-k-unC9-5" target="jXmrlD668ytqve9jY46r-2" edge="1">
          <mxGeometry width="100" relative="1" as="geometry">
            <mxPoint x="218" y="399" as="sourcePoint" />
            <mxPoint x="375.5" y="507" as="targetPoint" />
          </mxGeometry>
        </mxCell>
        <mxCell id="wvd1j4CsccvjR-k-unC9-19" value="" style="sketch=0;outlineConnect=0;fontColor=#FFFFFF;gradientColor=none;fillColor=light-dark(#FFFFFF,#007FFF);strokeColor=none;dashed=0;verticalLabelPosition=bottom;verticalAlign=top;align=center;html=1;fontSize=12;fontStyle=0;aspect=fixed;pointerEvents=1;shape=mxgraph.aws4.mobile_client;" parent="1" vertex="1">
          <mxGeometry x="48" y="434" width="41" height="78" as="geometry" />
        </mxCell>
        <mxCell id="wvd1j4CsccvjR-k-unC9-20" value="" style="edgeStyle=orthogonalEdgeStyle;html=1;endArrow=block;elbow=vertical;startArrow=none;endFill=1;strokeColor=#FF3333;rounded=0;" parent="1" source="wvd1j4CsccvjR-k-unC9-19" target="wvd1j4CsccvjR-k-unC9-4" edge="1">
          <mxGeometry width="100" relative="1" as="geometry">
            <mxPoint x="245" y="399" as="sourcePoint" />
            <mxPoint x="330" y="399" as="targetPoint" />
            <Array as="points">
              <mxPoint x="69" y="368" />
            </Array>
          </mxGeometry>
        </mxCell>
        <mxCell id="wvd1j4CsccvjR-k-unC9-22" value="" style="edgeStyle=orthogonalEdgeStyle;html=1;endArrow=block;elbow=vertical;startArrow=classic;endFill=1;strokeColor=#FF3333;rounded=0;startFill=1;" parent="1" source="wvd1j4CsccvjR-k-unC9-19" target="wvd1j4CsccvjR-k-unC9-5" edge="1">
          <mxGeometry width="100" relative="1" as="geometry">
            <mxPoint x="79" y="446" as="sourcePoint" />
            <mxPoint x="167" y="399" as="targetPoint" />
            <Array as="points">
              <mxPoint x="69" y="584" />
            </Array>
          </mxGeometry>
        </mxCell>
        <mxCell id="wvd1j4CsccvjR-k-unC9-12" value="" style="edgeStyle=orthogonalEdgeStyle;html=1;endArrow=block;elbow=vertical;startArrow=none;endFill=1;strokeColor=#FF3333;rounded=0;" parent="1" source="wvd1j4CsccvjR-k-unC9-4" target="jXmrlD668ytqve9jY46r-2" edge="1">
          <mxGeometry width="100" relative="1" as="geometry">
            <mxPoint x="229" y="410" as="sourcePoint" />
            <mxPoint x="369.5" y="456" as="targetPoint" />
          </mxGeometry>
        </mxCell>
        <mxCell id="joqS81-kMPTjd_gs5cnV-1" value="" style="edgeStyle=orthogonalEdgeStyle;html=1;endArrow=block;elbow=vertical;startArrow=none;endFill=1;strokeColor=#FF3333;rounded=0;" edge="1" parent="1" source="wvd1j4CsccvjR-k-unC9-4" target="jXmrlD668ytqve9jY46r-1">
          <mxGeometry width="100" relative="1" as="geometry">
            <mxPoint x="319" y="408" as="sourcePoint" />
            <mxPoint x="414" y="340" as="targetPoint" />
            <Array as="points" />
          </mxGeometry>
        </mxCell>
        <mxCell id="joqS81-kMPTjd_gs5cnV-4" value="Authorization" style="edgeLabel;html=1;align=center;verticalAlign=middle;resizable=0;points=[];" vertex="1" connectable="0" parent="joqS81-kMPTjd_gs5cnV-1">
          <mxGeometry x="-0.2625" y="-1" relative="1" as="geometry">
            <mxPoint as="offset" />
          </mxGeometry>
        </mxCell>
      </root>
    </mxGraphModel>
  </diagram>
</mxfile>
